<?xml version="1.0" encoding="utf-8"?>
<!-- Generator: Adobe Illustrator 26.3.1, SVG Export Plug-In . SVG Version: 6.00 Build 0)  -->
<svg version="1.1" id="Layer_1" xmlns="http://www.w3.org/2000/svg" xmlns:xlink="http://www.w3.org/1999/xlink" x="0px" y="0px"
	 viewBox="0 0 512 512" style="enable-background:new 0 0 512 512;" xml:space="preserve">
<path d="M128.1,263.5c-4.1,0-7.5,3.4-7.5,7.5s3.4,7.5,7.5,7.5s7.5-3.4,7.5-7.5l0,0C135.6,266.9,132.3,263.5,128.1,263.5z
	 M128.1,398.5c-4.1,0-7.5,3.4-7.5,7.5s3.4,7.5,7.5,7.5s7.5-3.4,7.5-7.5S132.3,398.5,128.1,398.5L128.1,398.5z M128.1,308.5
	c-4.1,0-7.5,3.4-7.5,7.5s3.4,7.5,7.5,7.5s7.5-3.4,7.5-7.5S132.3,308.5,128.1,308.5L128.1,308.5z M128.1,443.5
	c-4.1,0-7.5,3.4-7.5,7.5s3.4,7.5,7.5,7.5s7.5-3.4,7.5-7.5S132.3,443.5,128.1,443.5L128.1,443.5z M262.5,202.3v-5.6
	c0-22.7-16.2-42.3-38.5-46.6l-9.2-1.8c10-8.1,15.8-20.3,15.8-33.1V92.8c0-4.4-1.5-8.7-4.2-12.2c2.7-3.3,4.2-7.4,4.2-11.7V50.9
	c0-4.1-3.4-7.5-7.5-7.5h-59.2c-11,0-18.7,10.7-18.7,20.3v27.5c0,0.3,0,0.5,0.1,0.8c0,0.3-0.1,0.6-0.1,0.8v22.4
	c0,12.9,5.8,25,15.8,33.1l-9.2,1.8c-22.3,4.3-38.5,23.8-38.5,46.6v5.6c0,16,13,29,29,29h91.4C249.5,231.3,262.5,218.3,262.5,202.3z
	 M160.1,63.7c0-2.5,2.2-5.3,3.7-5.3h51.7v10.4c0,2-1.6,3.7-3.7,3.7c-0.3,0-0.5,0-0.8,0c-0.3,0-0.6,0-0.8,0h-44.8
	c-1.8,0-3.6,0.2-5.3,0.7V63.7z M160.1,115.2V92.8c0-2.9,2.4-5.3,5.3-5.3h44.8c2.9,0,5.3,2.4,5.3,5.3v22.4
	c0,15.3-12.4,27.7-27.7,27.7S160.1,130.5,160.1,115.2z M195.1,157.3v2.1c0,4-3.2,7.2-7.2,7.2s-7.2-3.2-7.2-7.2v-2.1
	C185.4,158.1,190.3,158.1,195.1,157.3z M128.1,202.3v-5.6c0-15.5,11.1-28.9,26.3-31.8l11.4-2.2c1.7,12.2,13,20.6,25.1,18.9
	c9.8-1.4,17.5-9.1,18.9-18.9l11.4,2.2c15.3,2.9,26.3,16.3,26.3,31.8v5.6c0,7.7-6.3,14-14,14h-91.4
	C134.4,216.3,128.1,210,128.1,202.3C128.1,202.3,128.1,202.3,128.1,202.3L128.1,202.3z M128.1,353.5c-4.1,0-7.5,3.4-7.5,7.5
	s3.4,7.5,7.5,7.5s7.5-3.4,7.5-7.5C135.6,356.9,132.3,353.5,128.1,353.5C128.1,353.5,128.1,353.5,128.1,353.5L128.1,353.5z
	 M391.4,216.3h-99.7c-4.1,0-7.5,3.4-7.5,7.5s3.4,7.5,7.5,7.5h99.7c4.1,0,7.5-3.4,7.5-7.5S395.5,216.3,391.4,216.3L391.4,216.3z
	 M391.4,186.3h-99.7c-4.1,0-7.5,3.4-7.5,7.5s3.4,7.5,7.5,7.5h99.7c4.1,0,7.5-3.4,7.5-7.5S395.5,186.3,391.4,186.3L391.4,186.3z
	 M391.4,45h-99.7c-4.1,0-7.5,3.4-7.5,7.5s3.4,7.5,7.5,7.5h99.7c4.1,0,7.5-3.4,7.5-7.5S395.5,45,391.4,45L391.4,45z M291.7,90h54.7
	c4.1,0,7.5-3.4,7.5-7.5s-3.4-7.5-7.5-7.5h-54.7c-4.1,0-7.5,3.4-7.5,7.5S287.6,90,291.7,90z M406.4,0H105.6
	C84.9,0,68.2,16.8,68.1,37.5v437c0,20.7,16.8,37.5,37.5,37.5h300.7c20.7,0,37.5-16.8,37.5-37.5v-437C443.8,16.8,427.1,0,406.4,0z
	 M428.9,474.5c0,12.4-10.1,22.5-22.5,22.5H105.6c-12.4,0-22.5-10.1-22.5-22.5v-437c0-12.4,10.1-22.5,22.5-22.5h300.7
	c12.4,0,22.5,10.1,22.5,22.5V474.5z M391.4,398.5H167.7c-4.1,0-7.5,3.4-7.5,7.5s3.4,7.5,7.5,7.5h223.6c4.1,0,7.5-3.4,7.5-7.5
	S395.5,398.5,391.4,398.5z M391.4,443.5H167.7c-4.1,0-7.5,3.4-7.5,7.5s3.4,7.5,7.5,7.5h223.6c4.1,0,7.5-3.4,7.5-7.5
	S395.5,443.5,391.4,443.5z M391.4,263.5H167.7c-4.1,0-7.5,3.4-7.5,7.5s3.4,7.5,7.5,7.5h223.6c4.1,0,7.5-3.4,7.5-7.5
	S395.5,263.5,391.4,263.5z M391.4,353.5H167.7c-4.1,0-7.5,3.4-7.5,7.5s3.4,7.5,7.5,7.5h223.6c4.1,0,7.5-3.4,7.5-7.5
	S395.5,353.5,391.4,353.5z M391.4,308.5H167.7c-4.1,0-7.5,3.4-7.5,7.5s3.4,7.5,7.5,7.5h223.6c4.1,0,7.5-3.4,7.5-7.5
	S395.5,308.5,391.4,308.5z"/>
</svg>
