<?xml version="1.0" encoding="utf-8"?>
<!-- Generator: Adobe Illustrator 26.0.3, SVG Export Plug-In . SVG Version: 6.00 Build 0)  -->
<svg version="1.1" id="Layer_1" xmlns="http://www.w3.org/2000/svg" xmlns:xlink="http://www.w3.org/1999/xlink" x="0px" y="0px"
	 viewBox="0 0 1771 2500" style="enable-background:new 0 0 1771 2500;" xml:space="preserve">
<path d="M164.8,0.1h112.7v111.3h103.1V0.1h112.7v337.1H380.5V224.3H277.4v112.9H164.8V0.1L164.8,0.1z M641.3,111.9h-99.2V0.1h311.1
	v111.8H754v225.3H641.4L641.3,111.9z M902.6,0.1h117.5l72.3,118.4l72.2-118.4h117.5v337.1h-112.2V170.1L1092.4,290h-1.9l-77.6-119.9
	v167.1H902.6V0.1L902.6,0.1z M1338.2,0.1h112.7v225.7h158.4v111.4h-271.2V0.1H1338.2z"/>
<path d="M2.2,490.7L163,2294.2l721.6,200.3l723.5-200.6l161-1803.2H2.2z M1419.1,1080.5H572.7l20.2,226.5H1399l-60.7,679.1
	l-452.7,125.5v0l-1,0.3l-453.1-125.8l-31-347.3h222l15.7,176.4l246.3,66.5l0.2,0v0l246.7-66.6l25.7-286.9H390.6L331,859.3h1108
	L1419.1,1080.5z"/>
</svg>
