<?xml version="1.0" encoding="UTF-8"?>
<svg id="Layer_1" data-name="Layer 1" xmlns="http://www.w3.org/2000/svg" xmlns:xlink="http://www.w3.org/1999/xlink" viewBox="0 0 100 100">
  <defs>
    <style>
      .cls-1 {
        clip-path: url(#clippath);
      }

      .cls-2 {
        fill: none;
      }

      .cls-2, .cls-3 {
        stroke-width: 0px;
      }
    </style>
    <clipPath id="clippath">
      <rect class="cls-2" x="2.13" y="2.13" width="95.74" height="95.74"/>
    </clipPath>
  </defs>
  <g class="cls-1">
    <path class="cls-3" d="M46.87,2.16c-.21.02-.86.08-1.45.13-13.6,1.23-26.33,8.56-34.4,19.84-4.49,6.27-7.36,13.38-8.45,20.92-.38,2.63-.43,3.41-.43,6.97s.05,4.34.43,6.97c2.6,17.98,15.39,33.08,32.74,38.68,3.11,1,6.38,1.68,10.11,2.1,1.45.16,7.72.16,9.17,0,6.43-.71,11.88-2.3,17.25-5.04.82-.42.98-.53.87-.63-.07-.06-3.58-4.76-7.8-10.45l-7.65-10.34-9.59-14.2c-5.28-7.8-9.62-14.19-9.66-14.19-.04,0-.07,6.3-.09,14-.03,13.49-.04,14.03-.21,14.35-.24.46-.43.65-.82.85-.3.15-.56.18-1.97.18h-1.62l-.43-.27c-.28-.18-.49-.41-.63-.68l-.2-.42.02-18.76.03-18.77.29-.36c.15-.2.47-.45.69-.57.38-.19.53-.21,2.15-.21,1.91,0,2.23.07,2.72.62.14.15,5.33,7.97,11.55,17.4,6.21,9.42,14.71,22.29,18.89,28.61l7.58,11.48.38-.25c3.4-2.21,6.99-5.35,9.84-8.63,6.05-6.95,9.96-15.43,11.27-24.47.38-2.63.43-3.41.43-6.97s-.05-4.34-.43-6.97c-2.6-17.98-15.39-33.08-32.74-38.68-3.06-.99-6.32-1.68-9.97-2.09-.9-.09-7.08-.2-7.86-.12ZM66.46,31.11c.45.22.81.66.94,1.1.07.24.09,5.45.07,17.17l-.03,16.83-2.97-4.55-2.98-4.55v-12.23c0-7.91.04-12.35.09-12.57.15-.52.48-.94.93-1.18.38-.2.52-.22,1.99-.22,1.38,0,1.63.02,1.94.19Z"/>
  </g>
</svg>