<?xml version="1.0" encoding="utf-8"?>
<!-- Generator: Adobe Illustrator 26.3.1, SVG Export Plug-In . SVG Version: 6.00 Build 0)  -->
<svg version="1.1" id="Layer_1" xmlns="http://www.w3.org/2000/svg" xmlns:xlink="http://www.w3.org/1999/xlink" x="0px" y="0px"
	 viewBox="0 0 32 32" style="enable-background:new 0 0 32 32;" xml:space="preserve">
<path d="M5.3,16.6c0-0.1-0.1-0.2-0.1-0.2L3,15.1c0,0-0.1,0-0.1,0h0c0,0-0.1,0-0.1,0l-2.2,1.3c-0.1,0-0.1,0.1-0.1,0.2l0,3.4
	c0,0,0,0.1,0.1,0.1c0,0,0.1,0,0.1,0l1.3-0.7C2,19.3,2,19.2,2,19.1v-1.6c0-0.1,0-0.2,0.1-0.2L2.7,17c0.1,0,0.2,0,0.3,0l0.6,0.3
	c0.1,0,0.1,0.1,0.1,0.2v1.6c0,0.1,0.1,0.2,0.1,0.2l1.3,0.7c0,0,0.1,0,0.1,0c0,0,0.1-0.1,0.1-0.1L5.3,16.6L5.3,16.6z M17,11.9
	c0,0-0.1,0-0.1,0S16.8,12,16.8,12v3.4c0,0.1,0,0.1-0.1,0.1c0,0,0,0,0,0l-0.5-0.3c-0.1,0-0.2,0-0.3,0l-2.2,1.3
	c-0.1,0-0.1,0.1-0.1,0.2v2.5c0,0.1,0.1,0.2,0.1,0.2l2.2,1.3c0.1,0,0.2,0,0.3,0l2.2-1.3c0.1,0,0.1-0.1,0.1-0.2v-6.3
	c0-0.1-0.1-0.2-0.1-0.2L17,11.9L17,11.9z M16.8,18.3C16.8,18.4,16.8,18.4,16.8,18.3L16,18.8c0,0,0,0-0.1,0l-0.8-0.4c0,0,0,0,0-0.1
	v-0.9c0,0,0,0,0-0.1L16,17c0,0,0,0,0.1,0l0.8,0.4c0,0,0,0,0,0.1V18.3z M24.9,17.4c0.1,0,0.1-0.1,0.1-0.2v-0.6c0-0.1-0.1-0.2-0.1-0.2
	l-2.2-1.3c-0.1,0-0.2,0-0.3,0l-2.2,1.3c-0.1,0-0.1,0.1-0.1,0.2v2.5c0,0.1,0.1,0.2,0.1,0.2l2.2,1.2c0.1,0,0.2,0,0.3,0l1.3-0.7
	c0,0,0.1-0.1,0.1-0.1s0-0.1-0.1-0.1l-2.2-1.3c0,0-0.1-0.1-0.1-0.1v-0.8c0,0,0-0.1,0.1-0.1l0.7-0.4c0,0,0.1,0,0.1,0l0.7,0.4
	c0,0,0.1,0.1,0.1,0.1v0.6c0,0,0,0.1,0.1,0.1s0.1,0,0.1,0L24.9,17.4L24.9,17.4z M9.3,15.1c0.1,0,0.2,0,0.3,0l2.2,1.3
	c0.1,0,0.1,0.1,0.1,0.2v2.5c0,0.1-0.1,0.2-0.1,0.2l-2.2,1.3c-0.1,0-0.2,0-0.3,0l-2.2-1.3C7,19.3,7,19.2,7,19.1v-2.5
	c0-0.1,0.1-0.2,0.1-0.2C7.1,16.4,9.3,15.1,9.3,15.1z M29.1,20.6c-0.1,0-0.2,0-0.2-0.1l-0.7-0.4c-0.1-0.1-0.1-0.1,0-0.1
	c0.1,0,0.2-0.1,0.3-0.1c0,0,0,0,0.1,0l0.5,0.3c0,0,0,0,0.1,0l2.1-1.2c0,0,0,0,0-0.1v-2.4c0,0,0,0,0-0.1l-2.1-1.2c0,0,0,0-0.1,0
	L27,16.6c0,0,0,0,0,0.1V19c0,0,0,0,0,0.1l0.6,0.3c0.3,0.2,0.5,0,0.5-0.2v-2.4c0,0,0-0.1,0.1-0.1h0.3c0,0,0.1,0,0.1,0.1v2.4
	c0,0.4-0.2,0.6-0.6,0.6c-0.1,0-0.2,0-0.5-0.1l-0.5-0.3c-0.1-0.1-0.2-0.2-0.2-0.4v-2.4c0-0.2,0.1-0.3,0.2-0.4l2.1-1.2
	c0.1-0.1,0.3-0.1,0.4,0l2.1,1.2c0.1,0.1,0.2,0.2,0.2,0.4V19c0,0.2-0.1,0.3-0.2,0.4l-2.1,1.2C29.3,20.6,29.2,20.6,29.1,20.6
	L29.1,20.6z M29.7,19c-0.9,0-1.1-0.4-1.1-0.8c0,0,0-0.1,0.1-0.1H29c0,0,0.1,0,0.1,0.1c0,0.3,0.2,0.4,0.7,0.4c0.4,0,0.6-0.1,0.6-0.3
	c0-0.1-0.1-0.2-0.7-0.3c-0.6-0.1-0.9-0.2-0.9-0.6c0-0.4,0.4-0.7,0.9-0.7c0.7,0,1,0.2,1,0.7c0,0,0,0,0,0s0,0,0,0h-0.3
	c0,0-0.1,0-0.1,0c-0.1-0.3-0.2-0.4-0.6-0.4c-0.5,0-0.5,0.2-0.5,0.3c0,0.2,0.1,0.2,0.7,0.3c0.6,0.1,0.9,0.2,0.9,0.6
	C30.8,18.7,30.4,19,29.7,19L29.7,19z M22.5,17.3C22.5,17.3,22.5,17.3,22.5,17.3l0.5,0.2c0,0,0,0,0,0v0.5c0,0,0,0,0,0l-0.4,0.2
	c0,0,0,0-0.1,0l-0.4-0.2c0,0,0,0,0,0v-0.5c0,0,0,0,0,0L22.5,17.3z"/>
</svg>
