<?xml version="1.0" encoding="utf-8"?>
<!-- Generator: Adobe Illustrator 26.0.3, SVG Export Plug-In . SVG Version: 6.00 Build 0)  -->
<svg version="1.2" baseProfile="tiny" id="Layer_1" xmlns:sketch="http://www.bohemiancoding.com/sketch/ns"
	 xmlns="http://www.w3.org/2000/svg" xmlns:xlink="http://www.w3.org/1999/xlink" x="0px" y="0px"
	 viewBox="481.708 -102.657 591.811 695.716" overflow="visible" xml:space="preserve">
<title>react-logo</title>
<desc>Created with Sketch.</desc>
<g>
	
		<ellipse id="Oval" sketch:type="MSShapeGroup" transform="matrix(0.1597 -0.9872 0.9872 0.1597 503.7102 898.3058)" cx="779.501" cy="153.284" rx="50.167" ry="50.167">
	</ellipse>
	<path id="Shape" sketch:type="MSShapeGroup" fill="none" stroke="#000000" stroke-width="24" d="M779.5,51.284
		c67.356,0,129.928,9.665,177.107,25.907c56.845,19.569,91.794,49.233,91.794,76.093c0,27.991-37.041,59.503-98.083,79.728
		c-46.15,15.291-106.879,23.272-170.818,23.272c-65.554,0-127.63-7.492-174.29-23.44c-59.046-20.183-94.611-52.104-94.611-79.56
		c0-26.642,33.37-56.076,89.415-75.616C647.37,61.159,711.487,51.284,779.5,51.284L779.5,51.284z"/>
	<path id="Shape_1_" sketch:type="MSShapeGroup" fill="none" stroke="#000000" stroke-width="24" d="M690.707,102.578
		c33.649-58.348,73.281-107.724,110.92-140.48c45.35-39.466,88.507-54.923,111.775-41.505
		c24.248,13.983,33.042,61.814,20.067,124.796c-9.81,47.618-33.234,104.212-65.176,159.601
		c-32.749,56.788-70.25,106.818-107.378,139.272c-46.981,41.067-92.4,55.929-116.185,42.213
		c-23.079-13.31-31.906-56.921-20.834-115.233C633.253,221.973,656.729,161.497,690.707,102.578L690.707,102.578z"/>
	<path id="Shape_2_" sketch:type="MSShapeGroup" fill="none" stroke="#000000" stroke-width="24" d="M690.792,205.139
		c-33.746-58.292-56.731-117.288-66.312-166.255c-11.544-58.999-3.382-104.109,19.864-117.566
		c24.224-14.024,70.055,2.244,118.14,44.94c36.356,32.28,73.688,80.837,105.723,136.173
		c32.844,56.733,57.461,114.208,67.036,162.582c12.116,61.214,2.309,107.984-21.453,121.74
		c-23.058,13.349-65.249-0.784-110.239-39.499C765.539,314.542,724.87,264,690.792,205.139L690.792,205.139z"/>
</g>
<path id="React" sketch:type="MSShapeGroup" d="M613.645,574.651l-42.602-64.377c21.538-1.893,40.946-17.514,40.946-45.916
	c0-29.112-20.592-47.573-49.466-47.573h-63.431v157.867h19.645V511.93h31.479l40.236,62.721H613.645z M560.155,494.653h-41.419
	v-60.354h41.419c18.698,0,31.479,12.307,31.479,30.058S578.853,494.653,560.155,494.653L560.155,494.653z M686.78,577.491
	c18.698,0,34.082-6.154,45.442-17.515l-8.52-11.597c-8.994,9.231-22.248,14.437-35.266,14.437
	c-24.615,0-39.762-17.988-41.183-39.526h92.543v-4.497c0-34.319-20.354-61.301-54.91-61.301c-32.662,0-56.33,26.745-56.33,59.881
	C628.556,553.113,652.934,577.491,686.78,577.491L686.78,577.491z M722.282,510.274h-75.029
	c0.947-17.514,13.018-38.106,37.396-38.106C710.685,472.168,722.045,493.232,722.282,510.274L722.282,510.274z M857.664,574.651
	v-78.578c0-27.692-20.118-38.579-44.259-38.579c-18.698,0-33.372,6.154-45.68,18.934l8.284,12.308
	c10.177-10.887,21.301-15.858,35.029-15.858c16.567,0,28.875,8.757,28.875,24.141v20.591c-9.231-10.651-22.248-15.621-37.869-15.621
	c-19.408,0-39.999,12.071-39.999,37.632c0,24.852,20.591,37.87,39.999,37.87c15.384,0,28.402-5.444,37.869-15.858v13.018H857.664z
	 M808.434,564.71c-16.567,0-28.165-10.414-28.165-24.851c0-14.675,11.597-25.089,28.165-25.089c12.544,0,24.615,4.734,31.479,14.201
	v21.538C833.049,559.976,820.978,564.71,808.434,564.71L808.434,564.71z M943.579,577.491c20.828,0,33.136-8.521,41.892-19.881
	l-11.834-10.888c-7.574,10.177-17.278,14.911-29.112,14.911c-24.378,0-39.526-18.934-39.526-44.259s15.148-44.023,39.526-44.023
	c11.834,0,21.538,4.497,29.112,14.911l11.834-10.887c-8.757-11.361-21.065-19.881-41.892-19.881
	c-34.082,0-57.04,26.035-57.04,59.881C886.539,551.456,909.497,577.491,943.579,577.491L943.579,577.491z M1039.198,577.491
	c10.414,0,16.805-3.077,21.302-7.338l-5.207-13.254c-2.367,2.603-7.1,4.733-12.071,4.733c-7.811,0-11.598-6.153-11.598-14.674
	v-71.004h23.195v-15.621h-23.195v-31.242h-17.751v31.242h-18.934v15.621h18.934v74.791
	C1013.873,567.787,1022.394,577.491,1039.198,577.491L1039.198,577.491z"/>
</svg>
