<?xml version="1.0" encoding="UTF-8"?>
<svg id="Layer_1" data-name="Layer 1" xmlns="http://www.w3.org/2000/svg" viewBox="0 0 100 100">
  <defs>
    <style>
      .cls-1 {
        stroke-width: 0px;
      }
    </style>
  </defs>
  <path class="cls-1" d="M83.24,55.18c.11,0,.24,0,.38,0,2.4,0,4.68.56,6.69,1.56l-.09-.04c1.84.9,3.35,2.22,4.44,3.85l.03.04c.86,1.26,1.37,2.81,1.37,4.48,0,.12,0,.24,0,.36v-.02c-.09,1.67-.85,3.14-2.01,4.17h0c-.64.63-1.41,1.12-2.26,1.43h-.04c-.48.11-.74.04-.79-.2s.17-.5.65-.79c1.3-.79,2.24-2.06,2.59-3.56v-.04c.02-.12.02-.26.02-.41,0-.9-.21-1.74-.59-2.49v.03c-.61-1.31-1.54-2.38-2.69-3.15l-.03-.02c-1.72-1.11-3.78-1.83-6-2.01h-.05c-.75-.12-1.62-.18-2.51-.18-2.31,0-4.51.44-6.54,1.23l.12-.04c.42.98.68,2.11.72,3.3h0c-.05,2.45-1.35,4.57-3.3,5.75l-.03.02c-.89.63-1.91,1.19-3,1.62l-.1.03c-.66.32-1.43.51-2.25.51-.1,0-.19,0-.28,0h.01c-1.82-.38-2.25-1.97-1.3-4.75.42-1.21,1-2.26,1.74-3.19l-.02.02c.95-1.24,1.99-2.32,3.14-3.29l.03-.03-.28-.42c-.53-.9-1.01-1.94-1.4-3.04l-.04-.13c-.29-.96-.53-1.87-.72-2.73l-.14-1.01-1.44,2.73c-1.25,2.3-2.45,4.32-3.6,6.05l-.43.72c.48,1.18.84,2.54,1,3.96v.07c.02.14.02.3.02.46,0,2.18-1.08,4.11-2.73,5.29h-.02c-.79.5-1.73,1.01-2.71,1.45l-.17.07c-1.02.44-2.2.73-3.43.79h-.03c-.1,0-.21.01-.32.01-.72,0-1.4-.16-2.01-.46h.03c-.37-.3-.6-.76-.6-1.28,0-.26.06-.51.17-.73h0c1.15-1.6,2.29-3.01,3.49-4.35l-.04.04,3.17-4.03-.57-1.3c-.46-.85-.9-1.85-1.26-2.88l-.04-.14c-.29-.96-.53-1.87-.72-2.73l-.14-1.01-1.44,3.46c-1.15,2.69-2.21,4.99-3.17,6.91-1.43,2.88-2.64,5.09-3.6,6.63l-.29.43c-1.15,1.82-2.25,2.73-3.31,2.73s-1.78-.67-2.15-2.02c-.28-.99-.44-2.13-.44-3.3,0-.1,0-.21,0-.31h0s.29-2,.29-2v.14c-.77,1.82-1.54,3.5-2.3,5.04-.51,1-1.03,1.85-1.62,2.65l.04-.05c-.59.62-1.43,1.01-2.35,1.01h-.02c-.06,0-.13,0-.2,0-.73,0-1.39-.28-1.89-.73h0c-1.01-1.03-1.75-2.32-2.14-3.75v-.06c-.49-1.31-.76-2.83-.76-4.41,0-.2,0-.41.01-.61v.03c.23-2.29.69-4.39,1.36-6.4l-.06.2-5.18,3.03v.14c.75,1.56,1.19,3.39,1.19,5.33,0,.35-.01.71-.04,1.05v-.05c-.15,2.97-1.1,5.68-2.63,7.98l.04-.06c-1.6,2.55-3.92,4.51-6.67,5.65l-.1.03c-1.55.69-3.36,1.1-5.26,1.1-1.2,0-2.37-.16-3.48-.47l.09.02c-.92-.31-1.67-.92-2.14-1.71v-.02c-.68-.97-1.1-2.16-1.17-3.45v-.02c-.03-.29-.05-.63-.05-.97,0-1.48.34-2.88.94-4.13l-.03.06c1.65-2.82,3.94-5.11,6.67-6.71l.09-.05c1.93-1.34,4.15-2.64,6.47-3.77l.31-.14.72-.43c-.86-.67-2.45-1.82-4.75-3.46-3.08-2.06-5.76-4.15-8.28-6.4l.07.06c-2.44-2.1-4.22-4.91-5.02-8.1l-.02-.11c-.07-.44-.12-.95-.12-1.47,0-1.62.42-3.15,1.15-4.48l-.02.05c1.61-3.47,3.85-6.39,6.59-8.74l.03-.03c2.97-2.8,6.33-5.24,9.97-7.22l.25-.12c3.26-1.88,7.06-3.63,11.03-5.03l.49-.15c3.68-1.35,7.94-2.14,12.38-2.15h0c.2,0,.44-.01.68-.01,3.58,0,6.96.83,9.97,2.3l-.13-.06c2.59,1.18,4.53,3.41,5.31,6.12l.02.07c.24.93.37,1.99.37,3.09,0,1.82-.38,3.56-1.05,5.13l.03-.08c-1.23,2.99-2.99,5.53-5.18,7.63h0c-2.22,2.21-4.88,3.96-7.83,5.14l-.16.05c-3.09,1.33-6.69,2.16-10.46,2.3h-.05c-.55.07-1.19.1-1.84.1-1.71,0-3.35-.24-4.91-.7l.12.03c-1.39-.44-2.59-1.13-3.61-2.03h.01c-.71-.57-1.3-1.29-1.71-2.11l-.02-.04c-.29-.77-.31-1.22-.07-1.37s.41-.17.5-.07l.72.72c.8.75,1.76,1.33,2.82,1.71l.06.02c1.46.51,3.14.8,4.89.8.56,0,1.11-.03,1.66-.09h-.07c4.66-.54,8.86-2.13,12.49-4.53l-.11.07c3.07-1.82,5.55-4.33,7.29-7.32l.05-.1c.87-1.27,1.39-2.85,1.39-4.54,0-1.04-.2-2.04-.55-2.95l.02.05c-1.08-1.7-2.82-2.9-4.85-3.23h-.04c-1.58-.39-3.39-.62-5.26-.62-1.5,0-2.97.14-4.39.42l.14-.02c-4.86.88-9.2,2.38-13.21,4.44l.26-.12c-11.81,5.95-17.91,12.05-18.29,18.29v.14c0,2.52.99,4.8,2.6,6.49h0c1.84,2.04,3.86,3.84,6.08,5.39l.11.07c2.02,1.51,3.81,3.07,5.47,4.75h0s.29.29.29.29l9.22-5.04c1.05-1.52,2.32-2.81,3.77-3.84l.05-.03c1.15-.97,2.62-1.6,4.22-1.73h.03c.06,0,.12,0,.19,0,1.07,0,2,.65,2.39,1.58v.02c.31.68.48,1.47.48,2.3,0,.25-.02.5-.05.75v-.03s-.28,1.42-.28,1.42l.43-.29c.3-.23.68-.36,1.09-.36.26,0,.5.05.73.15h-.01c.55.14.95.63.95,1.22,0,.1-.01.2-.03.29h0s-.43,1.58-.43,1.58c-.86,3.46-1.44,5.95-1.73,7.49-.14.5-.22,1.07-.22,1.67,0,.12,0,.24.01.37v-.02c.05.58.12.86.22.86s.29-.29.57-.86l.43-1.01c.1,0,.1.05,0,.14l1.58-3.31c3.75-8.26,5.76-12.86,6.05-13.83l.86-2.73c.1-.19.48-.38,1.15-.57.68-.18,1.46-.29,2.27-.29.07,0,.13,0,.2,0h0c1.34,0,2.02.34,2.02,1.01l-.14.72c-.32.89-.64,2-.89,3.13l-.03.18c-.06.37-.09.8-.09,1.24,0,.58.06,1.15.17,1.7v-.05s.14.57.14.57c.29,1.2.74,2.26,1.33,3.22l-.03-.05c1.15-1.92,2.25-3.89,3.31-5.9.84-1.39,1.61-3,2.24-4.69l.07-.2c.22-1.09.46-2,.77-2.9l-.05.16c.1-.29.51-.5,1.23-.65.69-.14,1.47-.22,2.28-.22h.1,0c1.34,0,2.06.34,2.15,1.01l-.29.57c-.34.97-.64,2.13-.84,3.33l-.02.13c-.03.28-.04.6-.04.93,0,.69.07,1.36.2,2.01v-.07s-.01.57-.01.57c.33,1.26.82,2.36,1.47,3.36l-.03-.05.43,1.01c2.41-1.18,5.23-1.87,8.23-1.87h.11,0ZM21.48,76.07c2-2.07,3.24-4.89,3.24-8,0-1.2-.18-2.36-.52-3.45l.02.08-2.3,1.44c-2.35,1.34-4.38,2.83-6.23,4.53l.02-.02c-1.4,1.28-2.43,2.95-2.94,4.82l-.02.07c-.43,1.78-.22,2.93.65,3.46.53.24,1.15.38,1.79.38.71,0,1.38-.17,1.97-.47h-.03c1.71-.61,3.16-1.6,4.31-2.86h0s.01.01.01.01ZM40.77,62.81c.48-1.25,1.01-2.74,1.58-4.47.77-2.3,1.03-3.65.79-4.03-.24-.38-.7-.43-1.37-.14-.8.39-1.47.92-2.01,1.58h0c-.6.77-1.17,1.62-1.68,2.51l-.05.1c-.58.95-1.07,2.05-1.42,3.22l-.03.1c-.56,1.51-.88,3.25-.88,5.06,0,.24,0,.49.02.73v-.03c.1,1.92.4,2.95.92,3.1s1.12-.55,1.8-2.09c.66-1.19,1.25-2.57,1.69-4.02l.04-.16c.29-.68.48-1.16.59-1.44h0ZM56.75,70.44c2-.9,3.4-2.78,3.6-5.02v-.02s0-.14,0-.14l-1.58,2.02-2.88,3.17s-.07.09-.07.14.03.11.07.14c.09.09.38,0,.86-.29h0ZM69.13,67.7c2.18-.62,3.75-2.6,3.75-4.93v-.11h0c-.03-.57-.13-1.11-.3-1.62v.04c-1.11,1-2.03,2.19-2.69,3.53l-.03.07c-.87,1.73-1.11,2.73-.73,3.02h0Z"/>
</svg>